{"title":"Chino Y Nacho - El Poeta (Premios Lo Nuestro 2012) (h264)","uid":7060103,"size":127292218,"categoryP":"video","categoryS":"music_videos","magnet":"?xt=urn:btih:794bff2e8d97ebd5c4160fdd8940c1b5bcee47e1&amp;dn=Chino+Y+Nacho+-+El+Poeta+%28Premios+Lo+Nuestro+2012%29+%28h264%29&amp;tr=udp%3A%2F%2Ftracker.openbittorrent.com%3A80&amp;tr=udp%3A%2F%2Fopen.demonii.com%3A1337&amp;tr=udp%3A%2F%2Ftracker.coppersurfer.tk%3A6969&amp;tr=udp%3A%2F%2Fexodus.desync.com%3A6969","seeders":2,"leechers":0,"uploader":"MusicVideos-HQ","files":1,"time":1330318033,"description":"General\n\nFormat                           : MPEG-4\nFormat profile                   : Base Media\nCodec ID                         : isom\nFile size                        : 121 MiB\nDuration                         : 4mn 12s\nOverall bit rate                 : 4 035 Kbps\nEncoded date                     : UTC 2012-02-26 17:44:25\nTagged date                      : UTC 2012-02-26 17:44:25\n\nVideo\nID                               : 1\nFormat                           : AVC\nFormat/Info                      : Advanced Video Codec\nFormat profile                   : &lt;a class=&quot;__cf_email__&quot; href=&quot;/cdn-cgi/l/email-protection&quot; data-cfemail=&quot;6921000e0129255a4759&quot;&gt;[email&amp;#160;protected]&lt;/a&gt;&lt;script cf-hash='f9e31' type=&quot;text/javascript&quot;&gt;\n/* &lt;![CDATA[ */!function(){try{var t=&quot;currentScript&quot;in document?document.currentScript:function(){for(var t=document.getElementsByTagName(&quot;script&quot;),e=t.length;e--;)if(t[e].getAttribute(&quot;cf-hash&quot;))return t[e]}();if(t&amp;&amp;t.previousSibling){var e,r,n,i,c=t.previousSibling,a=c.getAttribute(&quot;data-cfemail&quot;);if(a){for(e=&quot;&quot;,r=parseInt(a.substr(0,2),16),n=2;a.length-n;n+=2)i=parseInt(a.substr(n,2),16)^r,e+=String.fromCharCode(i);e=document.createTextNode(e),c.parentNode.replaceChild(e,c)}}}catch(u){}}();/* ]]&gt; */&lt;/script&gt;\nFormat settings, CABAC           : Yes\nFormat settings, ReFrames        : 2 frames\nCodec ID                         : avc1\nCodec ID/Info                    : Advanced Video Coding\nDuration                         : 4mn 12s\nBit rate mode                    : Variable\nBit rate                         : 4 017 Kbps\nMaximum bit rate                 : 12.0 Mbps\nWidth                            : 640 pixels\nHeight                           : 480 pixels\nDisplay aspect ratio             : 4:3\nFrame rate mode                  : Constant\nFrame rate                       : 29.970 fps\nColor space                      : YUV\nChroma subsampling               : 4:2:0\nBit depth                        : 8 bits\nScan type                        : Progressive\nBits/(Pixel*Frame)               : 0.436\nStream size                      : 119 MiB (98%)\n\n\nAudio\nID                               : 2\nFormat                           : AAC\nFormat/Info                      : Advanced Audio Codec\nFormat profile                   : LC\nCodec ID                         : 40\nDuration                         : 4mn 12s\nBit rate mode                    : Variable\nBit rate                         : 60.7 Kbps\nMaximum bit rate                 : 67.5 Kbps\nChannel(s)                       : 2 channels\nChannel positions                : Front: L R\nSampling rate                    : 44.1 KHz\nCompression mode                 : Lossy\nStream size                      : 1.83 MiB (2%)\n\n\n","torrent":{"xt":"urn:btih:794bff2e8d97ebd5c4160fdd8940c1b5bcee47e1","amp;dn":"Chino+Y+Nacho+-+El+Poeta+%28Premios+Lo+Nuestro+2012%29+%28h264%29","amp;tr":["udp%3A%2F%2Ftracker.openbittorrent.com%3A80","udp%3A%2F%2Fopen.demonii.com%3A1337","udp%3A%2F%2Ftracker.coppersurfer.tk%3A6969","udp%3A%2F%2Fexodus.desync.com%3A6969"],"infoHash":"794bff2e8d97ebd5c4160fdd8940c1b5bcee47e1","infoHashBuffer":{"type":"Buffer","data":[121,75,255,46,141,151,235,213,196,22,15,221,137,64,193,181,188,238,71,225]},"announce":[],"urlList":[]}}